<svg width="174" height="406" viewBox="0 0 174 406" fill="none" xmlns="http://www.w3.org/2000/svg">
<path d="M77.988 405.186C120.81 405.186 155.523 402.366 155.523 398.888C155.523 395.41 120.81 392.591 77.988 392.591C35.1666 392.591 0.452881 395.41 0.452881 398.888C0.452881 402.366 35.1666 405.186 77.988 405.186Z" fill="black"/>
<path d="M108.874 231.313C110.227 229.935 110.473 228.238 110.325 226.418C110.202 224.819 109.686 223.293 109.415 221.719C108.604 217.266 108.604 212.814 109.169 208.337C110.104 201.055 113.079 194.536 116.67 188.238C120.407 181.67 124.957 175.692 129.973 170.059C137.228 161.892 144.334 153.602 151.146 145.041C154.318 141.056 157.122 136.824 160.023 132.642C160.81 131.535 161.597 130.428 162.409 129.346C162.802 128.829 163.196 128.337 163.687 127.919C164.868 126.837 166.417 126.886 167.573 127.993C168.433 128.829 168.95 129.863 169.368 130.945C170.696 134.389 171.458 137.981 172.22 141.572C173.524 147.722 173.77 153.946 173.376 160.194C172.27 177.242 166.319 192.494 155.843 205.975C150.777 212.494 144.974 218.25 138.359 223.195C135.457 225.36 132.359 227.156 128.965 228.435C125.719 229.665 122.375 230.132 118.956 229.788C117.038 229.591 115.612 230.009 114.333 231.51C112.784 233.33 110.866 234.806 109.268 236.627C108.161 238.447 106.464 239.677 104.841 240.981C101.915 243.318 98.7427 245.237 95.0541 246.122C94.3901 246.294 94.1688 246.614 94.218 247.303C94.5623 252.567 95.1279 257.807 95.6197 263.047C96.1853 269.025 96.8738 274.978 97.6361 280.907C98.5706 288.237 100.538 295.248 104.423 301.62C104.989 302.555 105.8 303.022 106.809 303.317C108.038 303.662 109.341 303.858 110.596 303.883C112.784 303.908 114.973 304.301 117.186 304.178C118.981 304.08 120.776 304.523 122.571 304.449C122.817 304.449 123.039 304.547 123.26 304.67C126.703 304.941 130.096 305.457 133.391 306.466C137.228 307.647 140.719 309.418 143.547 312.37C146.67 315.642 148.195 319.553 148.318 324.08C148.441 328.926 147.285 333.501 145.687 338.028C144.187 342.21 142.244 346.195 140.277 350.18C138.088 354.584 135.703 358.889 133.736 363.415C132.359 366.564 131.08 369.762 130.637 373.206C130.219 376.576 130.391 379.922 131.621 383.144C132.777 386.195 134.99 388.359 137.621 390.131C138.31 390.598 139.072 390.967 139.81 391.385C140.375 391.705 140.941 392 141.482 392.32C143.228 393.378 143.72 395.124 143.031 397.24C142.76 398.101 142.195 398.79 141.531 399.38C139.736 401.028 137.572 401.939 135.186 402.258C133.441 402.504 131.67 402.431 129.924 402.234C128.203 402.037 126.58 401.447 125.08 400.586C123.407 399.651 121.809 398.568 120.358 397.314C116.424 393.894 114.432 389.614 114.333 384.374C114.235 379.38 115.169 374.583 116.694 369.885C117.481 367.449 118.366 365.063 119.252 362.652C120.924 358.101 122.252 353.452 123.186 348.704C123.604 346.589 123.973 344.448 124.047 342.308C123.776 340.906 124.17 339.528 124.293 338.151C124.662 333.797 124.416 329.541 123.137 325.334C121.661 320.488 118.17 318.102 113.424 317.167C111.825 316.847 110.251 317.142 108.677 317.339C108.063 317.413 107.423 317.659 106.784 317.413C103.44 318.2 100.194 319.209 97.0706 320.636C96.5296 321.226 95.8164 321.447 95.1033 321.743C93.8491 322.259 92.8901 323.096 92.595 324.449C92.054 326.81 90.554 328.434 88.5621 329.565C86.1768 330.918 83.5947 331.73 80.7668 331.484C75.3322 331.533 70.0206 330.574 64.7335 329.492C59.8399 328.483 54.8971 327.647 49.8806 327.868C46.0444 328.04 42.3558 328.901 38.8393 330.426C34.7572 332.173 31.9292 335.248 29.8636 339.086C28.3144 341.964 27.3553 345.063 26.8389 348.286C26.2487 351.878 25.9044 355.494 26.0766 359.159C26.2241 362.013 26.8389 364.768 27.3799 367.572C28.4127 372.714 29.1013 377.904 28.9783 383.169C28.9046 385.776 28.4127 388.236 27.257 390.573C26.1504 392.812 24.4782 394.46 22.2404 395.567C19.3141 396.994 16.2156 397.388 13.0188 397.019C11.1007 396.797 9.23183 396.379 7.43669 395.666C6.08419 395.124 4.83004 394.436 3.82181 393.353C1.82995 391.213 1.4611 388.704 2.2726 385.998C2.59229 384.915 3.35459 384.128 4.31363 383.587C5.54318 382.898 6.87109 382.701 8.24818 382.824C9.64986 382.947 11.0269 383.243 12.4286 383.218C14.5189 383.169 15.7484 382.283 16.5107 380.315C17.1501 378.667 16.8796 376.994 16.5599 375.346C15.9451 372.025 14.7894 368.876 13.9287 365.629C13.1172 362.652 12.2811 359.7 11.8385 356.65C10.8302 349.737 11.2237 342.948 13.5598 336.306C16.2894 328.508 20.8879 322.038 27.3553 316.921C30.8226 314.166 34.8802 312.788 39.2573 312.272C42.6263 311.878 45.9706 312.222 49.2904 312.665C52.4626 313.083 55.6349 313.502 58.8071 313.772C61.5121 314.018 64.2171 314.289 66.9467 314.19C69.7992 314.067 72.4797 313.452 74.9142 311.878C76.4634 310.845 77.8159 309.615 78.7749 307.991C78.9471 307.007 79.6848 306.294 79.9799 305.384C80.816 302.825 81.6521 300.291 80.6192 297.561C80.2996 296.724 80.5946 295.888 81.2832 295.273C81.775 294.83 81.9472 294.314 81.9226 293.674C81.7996 289.886 81.7504 286.073 81.4799 282.284C81.4799 282.014 81.4307 281.718 81.4307 281.448C81.5783 277.438 81.3078 273.453 81.1356 269.443C80.8897 263.81 80.7176 258.176 80.275 252.567C80.2258 251.854 80.2504 251.116 80.2504 250.403C80.2504 249.763 79.9799 249.345 79.3159 249.197C73.7338 247.967 69.6025 244.523 65.9139 240.39C65.1761 239.554 64.3401 238.816 63.7253 237.857C63.381 237.34 62.8646 237.143 62.2744 237.192C58.3891 237.537 54.848 236.356 51.3806 234.806C49.7822 234.093 48.1101 233.502 46.4133 232.986C45.9215 232.838 45.4051 232.691 45.0362 232.272C42.7247 231.387 40.4131 230.526 38.1015 229.591C33.9457 227.894 30.1833 225.581 27.0602 222.309C24.0109 219.111 21.8224 215.348 20.101 211.313C17.7895 205.926 16.2648 200.292 15.0353 194.585C13.3877 186.935 11.8384 179.259 10.2154 171.584C9.15804 166.59 7.9777 161.597 6.18256 156.8C5.76452 155.668 5.37105 154.536 5.39564 153.306C5.39564 151.191 6.62518 149.764 8.71541 149.395C10.9286 148.977 13.1172 149.198 15.2812 149.543C20.5191 150.33 25.3389 152.372 30.0849 154.635C39.9213 159.309 48.5035 165.705 55.8316 173.774C59.2005 177.488 62.3236 181.375 64.7581 185.803C67.2664 190.379 68.8156 195.274 69.6025 200.415C70.291 204.942 70.414 209.493 70.2419 214.068C70.0452 219.013 69.5533 223.958 68.9386 228.878C68.6681 231.141 68.3484 233.404 68.25 235.667C68.4221 236.651 68.9877 237.389 69.6517 238.103C71.4468 240.021 73.4633 241.694 75.6273 243.17C75.9224 243.416 76.2421 243.613 76.5617 243.859C76.6355 243.933 76.7339 244.007 76.8322 244.08C77.6929 244.646 78.6274 244.917 79.6356 245.114C80.3733 245.261 80.3979 245.237 80.3733 244.523C80.2996 242.924 80.2258 241.325 80.1028 239.726C79.8569 236.012 79.6848 232.297 79.6356 228.582C79.6356 227.377 79.5372 226.196 79.5126 224.991C79.4635 219.136 79.6848 213.306 80.0045 207.476C80.3487 201.522 80.9143 195.594 81.5537 189.665C81.9963 185.606 82.3652 181.547 82.857 177.513C83.4472 172.47 84.2587 167.451 85.0702 162.458C85.6112 159.112 86.1522 155.742 86.5948 152.372C87.0621 149.001 87.7506 145.68 88.1932 142.31C88.6851 138.669 89.0785 135.004 89.0539 131.314C89.0539 131.068 89.0785 130.822 88.9064 130.527C87.062 130.896 85.1685 131.068 83.2504 130.994C77.8404 130.822 72.8731 129.297 68.2992 126.394C63.1351 123.122 58.3399 119.432 53.9873 115.127C51.3069 112.495 48.5773 109.887 45.651 107.526C42.7492 105.189 39.7491 102.999 36.331 101.45C36.1589 101.376 35.9622 101.277 35.8146 101.154C34.6588 100.392 34.3883 99.0388 35.1998 97.9072C35.7408 97.1692 36.4786 96.7018 37.3146 96.4066C38.0524 96.136 38.8147 95.89 39.577 95.644C40.2655 95.0536 41.1262 95.1028 41.9623 95.0536C45.7739 94.8322 49.4626 95.4718 53.0282 96.7756C62.3482 100.146 70.7829 105.017 78.4061 111.757C77.7175 109.051 77.9142 106.493 77.9388 103.934C77.9388 101.72 78.5536 99.6538 79.7831 97.8088C81.7012 94.8814 84.4554 94.2418 87.4555 96.013C90.2097 97.6612 92.2016 100.023 93.7262 102.827C93.9721 103.27 94.095 103.811 94.5623 104.205C95.1033 103.762 95.2754 103.073 95.5705 102.483C96.5542 100.49 97.7345 98.6698 99.4067 97.1692C102.579 94.3402 107.891 94.8076 110.079 98.2762C111.456 100.441 112.194 102.852 112.391 105.41C112.44 106.099 112.464 106.763 112.686 107.55C113.891 106.64 114.85 105.533 115.932 104.549C119.448 101.425 123.432 99.1372 127.735 97.2922C132.014 95.4718 136.465 94.1434 141.015 93.1348C141.506 93.0364 142.023 92.815 142.539 93.0856C145.982 92.446 149.449 91.7818 152.892 91.1668C154.908 90.8224 156.9 90.4042 158.966 90.5272C160.884 90.6502 161.892 92.1016 161.351 93.9466C161.228 94.3648 161.056 94.783 160.859 95.152C160.441 95.89 159.999 96.6034 159.531 97.2922C155.4 103.442 150.138 108.485 144.31 112.987C138.605 117.39 132.703 121.499 126.457 125.115C123.776 126.665 120.973 127.919 117.874 128.362C115.071 128.756 112.292 128.682 109.612 127.599C108.8 127.28 107.915 127.649 107.768 128.46C107.571 129.641 107.005 130.65 106.489 131.683C104.645 135.422 103.317 139.358 102.431 143.442C101.448 148.017 100.12 152.495 99.3083 157.119C98.7181 160.342 98.2509 163.589 97.7345 166.812C97.1197 170.723 96.5049 174.635 95.9148 178.546C95.4229 181.793 95.0295 185.04 94.8082 188.312C94.759 188.976 94.5377 189.665 94.6852 190.329C94.9311 190.674 94.9557 191.092 94.9311 191.486C94.6852 195.126 94.6115 198.743 94.341 202.383C94.1688 204.696 94.1442 207.008 94.0704 209.321C93.9475 212.642 93.7016 215.963 93.7754 219.259C93.8246 221.424 93.5541 223.564 93.5295 225.729C93.4803 230.772 93.7754 235.79 93.9967 240.833C94.0459 241.866 94.2426 242.014 95.2754 241.67C98.669 240.489 101.521 238.472 104.153 236.085C105.825 234.56 107.473 232.986 109.096 231.387L108.874 231.313Z" fill="#3BCC84"/>
<path d="M142.342 93.0118C138.678 93.8482 135.039 94.7338 131.498 96.013C128.104 97.243 124.809 98.6944 121.686 100.49C118.538 102.311 115.858 104.697 113.251 107.206C112.956 107.477 112.661 107.747 112.391 108.018C112.391 108.018 112.317 108.018 112.169 108.018C112.096 107.28 111.973 106.566 111.948 105.828C111.825 103.393 111.137 101.105 110.03 98.9404C108.505 96.013 104.743 94.6846 101.669 95.9392C99.8986 96.6526 98.5707 97.8826 97.4887 99.4078C96.4804 100.81 95.7181 102.36 94.9558 103.885C94.8083 104.18 94.7345 104.549 94.3164 104.82C94.0951 104.377 93.8738 103.959 93.6525 103.541C92.3492 100.908 90.554 98.6944 88.2425 96.8986C87.3572 96.2098 86.3982 95.644 85.267 95.398C83.5702 95.0044 82.0948 95.3488 80.8406 96.5788C79.3898 98.0056 78.5783 99.8014 78.2832 101.769C77.7914 104.869 77.8897 107.993 78.4061 111.093C78.4553 111.437 78.5291 111.782 78.652 112.397C77.693 111.609 76.9307 110.945 76.1438 110.306C69.0124 104.402 61.0695 99.9244 52.3398 96.874C49.1675 95.767 45.8724 95.1028 42.4542 95.2258C41.3968 95.2504 40.3886 95.4964 39.3558 95.5702C37.2163 91.6588 35.4458 87.5998 34.1179 83.344C33.2326 80.4904 32.2982 77.6368 31.8064 74.6602C31.6096 73.4302 31.4621 72.2248 31.4129 70.9702C31.29 67.2556 31.6096 63.541 31.6834 59.8264C31.7326 55.792 31.4867 51.7576 31.0195 47.7478C30.6752 44.7466 30.0604 41.8438 29.0276 39.0148C28.1423 36.6286 26.9374 34.4392 24.9947 32.7172C24.4045 32.176 23.7405 31.7086 23.0766 31.2904C22.4372 30.8722 21.8224 30.823 21.1585 31.2166C21.0601 31.2904 20.9372 31.3396 20.8388 31.3888C18.9699 32.3482 17.9371 31.8562 17.3223 29.8882C16.5354 27.4036 17.3469 25.2388 18.6502 23.1724C20.2486 20.614 22.4126 18.6214 24.8471 16.8994C29.3718 13.6522 34.4622 11.7088 39.9459 10.7986C41.9624 10.4542 44.0035 10.2574 46.0199 10.3066C49.7823 10.4296 53.4955 10.897 57.012 12.4222C60.0121 13.7014 62.5204 15.6202 64.6844 18.0556C65.4467 18.9166 66.1599 19.8268 66.8484 20.737C67.3156 20.491 67.2911 20.0236 67.414 19.6792C69.3075 14.7838 71.865 10.282 75.652 6.56739C79.2422 3.04959 83.5702 0.860197 88.5622 0.220597C95.3739 -0.640403 101.546 1.0078 106.956 5.362C110.202 7.9696 112.465 11.2168 113.719 15.202C113.792 15.448 113.792 15.7678 114.063 15.94C114.407 15.94 114.506 15.6448 114.678 15.448C115.883 14.0704 117.161 12.7174 118.637 11.6104C122.768 8.53539 127.17 5.9524 132.113 4.4026C134.891 3.517 137.769 3.0988 140.695 2.779C142.416 2.6068 144.113 2.533 145.834 2.6068C152.646 2.8528 158.868 4.84539 164.253 9.15039C165.04 9.76539 165.802 10.405 166.565 11.0692C167.081 11.5366 167.474 12.0532 167.474 12.8158C167.474 13.6276 167.179 14.2672 166.392 14.5132C165.802 14.71 165.458 15.079 165.114 15.5218C163.073 18.2524 161.769 21.3274 160.491 24.4516C157.982 30.577 156.286 36.9238 155.154 43.4428C154.294 48.3628 153.113 53.209 152.179 58.1044C151.367 62.2618 150.679 66.4192 149.892 70.5766C148.884 75.964 147.875 81.3268 145.834 86.4436C145.072 88.387 144.064 90.2074 142.957 91.9786C142.736 92.323 142.564 92.6674 142.367 93.0118H142.342Z" fill="#FF8BA2"/>
<path d="M44.9133 232.223C47.3723 232.789 49.7085 233.748 52.02 234.708C53.9873 235.52 55.93 236.307 58.0448 236.651C59.3481 236.873 60.676 236.922 61.9793 236.774C62.963 236.676 63.504 237.069 64.0695 237.783C66.086 240.415 68.373 242.801 71.0534 244.794C72.2583 245.704 73.5616 246.516 74.865 247.278C76.3158 248.115 77.8897 248.508 79.5127 248.804C80.3979 248.951 80.3979 248.976 80.4471 249.886C80.6193 253.748 80.7668 257.635 80.9881 261.497C81.357 268.287 81.5783 275.076 81.7504 281.866C81.8488 285.827 82.0209 289.787 82.1685 293.723C82.1931 294.412 82.2176 295.002 81.4061 295.396C80.6684 295.765 80.5455 296.651 80.816 297.536C82.0209 301.374 80.8897 304.744 78.652 307.868C78.3323 305.654 78.0864 303.44 77.57 301.251C77.4716 300.833 77.3732 300.39 77.2257 299.972C76.6847 298.299 75.824 297.659 74.0781 297.536C73.0698 297.462 72.0862 297.487 71.078 297.536C65.9139 297.807 60.8727 296.946 55.8316 296.011C48.0609 294.584 40.2656 293.207 32.4211 292.198C28.4865 291.681 24.5765 291.091 20.6666 290.525C20.0764 290.451 19.4862 290.353 18.9452 290.058C17.814 289.467 17.6665 288.213 18.6502 287.401C19.2403 286.909 19.9535 286.614 20.6912 286.417C23.4946 285.581 26.2979 284.769 29.0767 283.932C34.9785 282.161 40.8311 280.292 46.8313 278.914C52.1921 277.659 57.6267 276.675 63.0367 275.642C63.7499 275.519 64.4384 275.372 65.1516 275.199C65.9139 275.027 65.9385 274.953 65.5942 274.24C65.1024 273.231 64.463 272.297 63.7991 271.411C62.0777 269.049 60.4547 266.614 58.9792 264.105C54.4053 256.282 50.397 248.189 47.2002 239.726C46.2657 237.266 45.4542 234.757 44.8886 232.174L44.9133 232.223Z" fill="#FFDD00"/>
<path d="M123.186 304.695C119.989 304.793 116.792 304.596 113.596 304.4C111.997 304.301 110.399 304.301 108.8 304.104C107.595 303.957 106.44 303.711 105.333 303.194C104.866 302.973 104.546 302.678 104.3 302.259C101.251 296.995 98.9395 291.485 97.9558 285.408C97.2673 281.226 96.7263 277.02 96.2591 272.813C95.7181 267.721 95.1771 262.653 94.6607 257.561C94.3164 253.945 94.0213 250.329 93.7016 246.688C93.6524 246.27 93.7508 246.024 94.218 245.925C98.4231 245.138 101.915 242.9 105.161 240.243C106.538 239.111 107.841 237.857 109.169 236.651C109.366 239.48 109.563 242.309 109.735 245.163C110.104 251.387 110.448 257.635 110.792 263.859C110.866 265.384 110.866 266.909 110.915 268.41C110.964 269.664 111.063 269.812 112.292 270.132C114.358 270.673 116.448 270.919 118.563 271.116C126.653 271.854 134.719 272.69 142.785 273.723C149.523 274.584 156.261 275.445 162.95 276.675C164.917 277.044 166.86 277.487 168.802 277.93C169.417 278.078 170.056 278.225 170.573 278.619C171.606 279.381 171.532 280.636 170.401 281.251C169.86 281.546 169.269 281.645 168.679 281.718C166.343 282.014 163.982 282.087 161.622 282.235C154.441 282.678 147.261 283.219 140.129 284.301C134.645 285.138 129.137 285.925 123.653 286.761C122.424 286.958 121.219 287.18 120.014 287.45C119.055 287.672 118.956 287.77 119.055 288.754C119.227 290.55 119.694 292.296 120.186 294.018C121.145 297.561 122.129 301.103 123.112 304.67L123.186 304.695Z" fill="#FFDD00"/>
<path d="M108.874 231.313C108.677 231.805 108.407 232.223 108.014 232.592C106.194 234.388 104.349 236.184 102.382 237.807C100.415 239.406 98.2755 240.71 95.9148 241.67C95.3984 241.866 94.8574 242.063 94.3164 242.186C93.554 242.383 93.5049 242.334 93.4557 241.547C93.3573 239.677 93.2344 237.783 93.2098 235.913C93.136 232.346 92.8409 228.804 93.0131 225.237C93.1852 221.793 93.0868 218.349 93.3573 214.929C93.4557 213.773 93.4065 212.617 93.4311 211.461C93.6032 207.107 93.7508 202.752 93.9475 198.398C94.0705 195.692 94.2918 192.962 94.4639 190.256C94.6607 189.813 94.8574 189.37 95.0295 188.927C95.2508 188.411 95.4967 187.919 95.8902 187.5C96.8984 186.369 98.1526 186.295 99.2592 187.304C99.8739 187.845 100.267 188.558 100.636 189.247C101.546 190.944 102.185 192.74 102.776 194.585C104.694 200.711 105.997 206.959 106.882 213.306C107.743 219.284 108.284 225.286 108.85 231.313H108.874Z" fill="#FFDD00"/>
<path d="M80.6684 331.41C81.9471 331.115 83.275 331.14 84.5292 330.722C85.3161 330.476 86.1276 330.23 86.9145 329.934C88.8572 329.221 90.2589 327.843 91.513 326.244C91.8081 325.851 91.9064 325.383 91.9802 324.916C92.2507 323.194 93.2098 322.013 94.8574 321.398C95.5705 321.128 96.2098 320.685 96.9722 320.562C96.1361 324.67 94.9803 328.704 93.9475 332.788C92.5704 338.225 91.6359 343.735 90.5539 349.221C89.89 352.591 89.2506 355.961 88.3899 359.307C88.2916 359.725 88.1686 360.168 87.9719 360.561C87.2588 362.087 85.7587 362.21 84.7505 360.832C84.4308 360.365 84.2095 359.848 84.0128 359.331C83.2996 357.314 82.9308 355.248 82.6111 353.132C81.7258 347.081 81.2586 340.98 80.8651 334.879C80.7914 333.723 80.7176 332.567 80.6438 331.41H80.6684Z" fill="#FFDD00"/>
<path d="M106.661 317.364C110.227 316.38 113.743 316.38 117.161 318.003C119.94 319.307 121.883 321.374 122.965 324.227C124.047 327.056 124.489 330.008 124.637 333.009C124.76 335.961 124.465 338.913 124.096 341.841C124.096 341.988 123.998 342.136 123.948 342.284C121.637 339.528 119.571 336.576 117.506 333.624C113.768 328.286 110.079 322.923 106.661 317.364Z" fill="#FFDD00"/>
<path d="M75.406 243.293C72.701 241.768 70.5124 239.652 68.4713 237.34C67.9795 236.799 67.8812 236.233 68.0533 235.593C70.7091 237.955 73.2174 240.464 75.6765 243.047C75.7011 243.269 75.6519 243.367 75.406 243.293Z" fill="#FDDD05"/>
<path d="M75.406 243.293C75.5044 243.219 75.5781 243.121 75.6765 243.047C75.9716 243.219 76.2421 243.441 76.365 243.785C75.947 243.81 75.6765 243.588 75.406 243.293Z" fill="#D3DE45"/>
<path d="M76.6355 244.007C76.488 244.007 76.3896 243.933 76.365 243.761C76.5125 243.761 76.5863 243.859 76.6355 244.007Z" fill="#D3DE45"/>
<path d="M127.293 214.019C131.67 211.953 136.121 210.059 140.154 207.303C142.318 205.827 144.31 204.179 145.859 202.064C145.933 201.965 146.006 201.867 146.08 201.793C146.375 201.498 146.695 201.399 147.039 201.67C147.359 201.916 147.457 202.211 147.261 202.605C146.818 203.54 146.129 204.253 145.441 204.966C143.793 206.738 141.801 208.066 139.785 209.37C136.883 211.215 133.809 212.765 130.637 214.118C128.547 215.028 126.506 216.061 124.612 217.316C124.17 217.611 123.727 217.881 123.653 218.472C123.629 218.718 123.457 218.939 123.235 219.038C122.596 219.284 122.276 219.874 121.907 220.366C120.334 222.432 118.784 224.523 117.235 226.59C116.67 227.352 116.227 227.574 115.809 227.279C115.366 226.983 115.391 226.516 116.006 225.704C118.834 221.94 121.686 218.177 124.539 214.413C124.932 213.896 125.301 213.38 125.744 212.912C126.973 211.535 127.613 209.862 128.227 208.164C129.457 204.819 130.367 201.399 131.154 197.906C131.965 194.388 132.26 190.821 132.801 187.279C132.9 186.689 132.85 186.074 132.85 185.483C132.85 184.991 132.998 184.598 133.588 184.598C134.178 184.598 134.301 184.991 134.301 185.483C134.301 186.812 134.301 188.115 134.055 189.419C133.637 191.904 133.441 194.413 132.9 196.873C132.26 199.874 131.547 202.875 130.637 205.803C130.588 205.95 130.465 206.073 130.637 206.344C131.154 205.655 131.645 205.016 132.088 204.327C135.875 198.767 139.564 193.158 142.859 187.304C145.318 182.9 147.507 178.349 149.72 173.823C149.99 173.282 150.064 172.691 150.138 172.101C150.359 170.207 150.654 168.312 150.949 166.418C151.195 164.942 151.171 163.466 150.998 161.99C150.875 161.08 150.974 160.145 150.679 159.26C150.58 158.94 150.777 158.645 150.851 158.325C150.925 157.98 151.121 157.734 151.49 157.734C151.835 157.734 152.056 157.98 152.203 158.3C152.253 158.399 152.277 158.522 152.277 158.645C152.376 161.154 152.72 163.663 152.548 166.197C152.499 166.787 152.203 167.353 152.351 168.042C152.646 167.919 152.695 167.673 152.794 167.451C154.171 164.573 155.548 161.67 156.925 158.792C159.138 154.069 160.81 149.174 161.818 144.057C161.917 143.54 161.892 143.024 161.917 142.507C161.991 141.621 162.335 141.129 162.851 141.203C163.368 141.277 163.663 141.843 163.54 142.679C163.196 145.139 162.655 147.55 161.966 149.912C160.884 153.602 159.458 157.169 157.786 160.637C153.679 169.149 149.621 177.66 145.318 186.074C145.146 186.246 145.22 186.492 145.146 186.713C145.318 186.713 145.441 186.639 145.588 186.59C146.818 185.729 147.826 184.671 148.884 183.614C151.318 181.178 153.753 178.743 156.163 176.283C157.49 174.93 158.548 173.38 159.458 171.732C159.925 170.871 160.195 170.699 160.663 170.895C161.204 171.141 161.253 171.51 160.81 172.421C159.974 174.167 158.843 175.717 157.49 177.095C154.81 179.85 152.08 182.556 149.375 185.286C147.925 186.738 146.4 188.091 144.777 189.321C142.982 190.674 141.654 192.371 140.498 194.265C136.932 200.046 133.195 205.729 129.039 211.116C128.375 211.977 127.834 212.912 127.072 213.675C126.949 213.945 127.072 214.019 127.342 213.97L127.293 214.019Z" fill="#056A37"/>
<path d="M55.5857 216.528C55.93 216.036 55.93 215.643 55.93 215.249C55.93 213.527 56.0037 211.805 55.9545 210.083C55.8316 205.852 55.0693 201.768 53.5201 197.808C53.3479 197.39 53.1758 196.996 53.0774 196.578C52.9791 196.258 53.0774 195.914 53.4217 195.766C53.7906 195.594 54.1348 195.668 54.3808 196.012C54.5775 196.307 54.7496 196.627 54.8726 196.971C56.0283 199.997 56.8153 203.121 57.2087 206.369C57.3808 207.672 57.3071 209.001 57.5776 210.305C57.7251 210.993 57.4054 211.707 57.4054 212.445C57.3562 214.364 57.5284 216.282 57.2087 218.201C57.0858 218.964 57.2579 219.653 57.6513 220.366C59.2006 223.17 60.6268 226.024 61.6842 229.05C61.7826 229.32 61.881 229.566 61.9302 229.837C61.9793 230.255 61.758 230.55 61.3892 230.673C61.0449 230.796 60.7744 230.6 60.5777 230.329C60.4547 230.181 60.3809 229.985 60.3317 229.788C58.512 224.573 55.6841 219.874 52.9545 215.126C52.684 214.659 52.3643 214.265 51.9217 213.995C49.6347 212.592 47.5691 210.895 45.3559 209.37C41.9623 207.008 38.2491 205.212 34.4375 203.638C33.4785 203.244 32.544 202.802 31.585 202.383C31.1177 202.187 30.8472 201.842 31.044 201.35C31.2407 200.834 31.6588 200.784 32.126 200.957C32.2735 201.006 32.4456 201.03 32.5932 201.104C36.6261 202.925 40.782 204.524 44.5444 206.959C46.1428 207.992 47.692 209.148 49.2658 210.255C49.6101 210.501 49.9544 210.747 50.52 211.141C49.8806 209.739 49.1429 208.706 48.4789 207.648C44.7165 201.645 40.9049 195.692 37.1179 189.714C36.3802 188.534 35.6179 187.353 34.8802 186.172C34.6588 185.828 34.4621 185.459 34.0933 185.286C33.3309 184.967 32.7899 184.352 32.2243 183.786C29.1505 180.735 25.8553 177.956 22.1667 175.643C21.4289 175.176 20.642 174.758 19.8305 174.413C19.3387 174.216 18.9452 173.97 19.1174 173.38C19.2649 172.888 19.7321 172.74 20.4207 173.036C21.2568 173.405 22.0929 173.798 22.8798 174.29C25.3143 175.815 27.6504 177.513 29.7898 179.456C30.1095 179.751 30.4784 179.997 30.9702 180.391C30.8718 179.702 30.503 179.309 30.257 178.89C27.8471 174.831 25.2897 170.871 22.3634 167.156C20.6666 165.016 18.8223 163.023 16.9534 161.055C16.5107 160.588 16.0927 160.096 15.6747 159.629C15.3796 159.284 15.2566 158.915 15.6009 158.546C15.9451 158.202 16.314 158.276 16.6829 158.546C16.8796 158.694 17.0517 158.841 17.2239 159.014C20.224 162.285 23.224 165.533 25.8307 169.149C28.9537 173.503 31.585 178.177 34.4867 182.679C36.7491 186.172 38.9622 189.69 41.2 193.183C41.2984 193.355 41.4459 193.478 41.6427 193.724C41.9132 193.208 41.864 192.716 41.7902 192.297C41.2738 189.518 41.0771 186.689 40.7082 183.884C40.0196 179.013 39.0852 174.216 37.6343 169.493C37.536 169.198 37.4868 168.878 37.413 168.558C37.3147 168.116 37.413 167.747 37.8802 167.599C38.3966 167.451 38.7409 167.722 38.8885 168.189C39.2328 169.469 39.5278 170.748 39.9213 172.002C41.2246 176.209 41.7164 180.588 42.3804 184.917C42.7247 187.131 42.823 189.37 43.2411 191.559C43.4378 192.617 43.4378 193.724 43.1919 194.782C42.9952 195.668 43.1919 196.332 43.6591 197.045C45.2329 199.505 46.7822 201.965 48.356 204.45C50.6675 208.091 52.9053 211.781 55.0447 215.544C55.2168 215.84 55.4136 216.135 55.6595 216.528H55.5857Z" fill="#056A37"/>
<path d="M145.564 186.615C145.367 186.959 145.047 187.181 144.605 187.525C144.728 186.861 144.949 186.443 145.293 186.098C145.293 186.32 145.342 186.516 145.564 186.615Z" fill="#2AAD6B"/>
<path d="M127.293 214.019C127.121 214.191 126.924 214.56 126.703 214.29C126.481 214.019 126.826 213.872 127.047 213.724C127.145 213.822 127.219 213.921 127.317 214.019H127.293Z" fill="#1F9A5C"/>
<path d="M106.341 78.9406C105.874 80.1214 105.456 81.3268 104.915 82.483C103.71 85.189 102.112 87.649 99.5051 89.1988C94.9066 91.954 90.1359 92.569 85.0702 90.4534C81.3816 88.9036 78.2094 86.7142 75.6519 83.6146C74.8896 82.6798 74.2502 81.6712 73.6846 80.6134C72.3075 78.793 72.1108 76.6528 72.3321 74.5126C72.4305 73.5286 73.3649 72.8644 74.1518 72.9382C75.0125 73.012 75.6519 73.6762 75.7011 74.734C75.7749 76.4068 76.3896 77.9812 76.6109 79.6294C76.6355 80.0476 76.906 80.3674 77.1274 80.6872C78.3815 82.36 79.7586 83.959 81.4799 85.1398C83.7915 86.7388 86.2752 88.1656 89.0785 88.5838C93.7754 89.2726 97.7837 87.8704 100.71 83.9836C101.792 82.5322 102.53 80.884 103.046 79.1374C103.12 77.3416 103.808 75.6688 103.882 73.8484C103.907 73.0612 104.62 72.52 105.481 72.4954C106.366 72.4954 107.03 72.9874 107.227 73.8484C107.645 75.6196 107.202 77.2924 106.366 78.8668L106.341 78.9406Z" fill="#056A37"/>
<path d="M106.341 78.9406C106.563 77.8582 106.809 76.7512 107.005 75.6442C107.128 74.9554 107.104 74.2912 106.809 73.6516C106.513 73.0366 105.825 72.7168 105.21 72.8398C104.522 72.9874 104.005 73.6024 104.054 74.3158C104.177 76.0378 103.612 77.6122 103.046 79.162C102.161 78.4978 101.054 78.178 100.292 77.317C98.3985 75.226 98.2509 72.889 99.21 70.4044C99.9969 68.4118 102.456 66.9112 104.645 66.8866C108.358 66.8866 111.087 69.814 110.94 73.258C110.841 75.7672 109.612 77.6368 107.276 78.7192C106.981 78.8668 106.686 78.9406 106.341 78.916V78.9406Z" fill="#DA5673"/>
<path d="M76.6356 79.6786C75.7503 78.3256 75.6273 76.7758 75.4552 75.226C75.4552 75.0292 75.4552 74.8324 75.4552 74.6356C75.3568 73.8238 74.7912 73.258 74.0781 73.2334C73.4387 73.2334 72.7748 73.75 72.6518 74.4634C72.5289 75.103 72.5781 75.7426 72.6518 76.3822C72.7994 77.8582 73.242 79.2604 73.7338 80.638C72.6764 80.6872 71.6682 80.5642 70.7091 80.0722C68.4468 78.916 67.3156 77.0956 67.2418 74.488C67.1681 72.1018 68.2501 70.4044 70.1681 69.199C73.3896 67.2064 77.8405 68.6824 79.1684 72.3232C79.9799 74.5372 79.2914 78.1042 76.6602 79.654L76.6356 79.6786Z" fill="#DA5673"/>
<path d="M122.547 72.643C121.957 72.5692 121.612 71.8804 121.858 71.3884C122.03 71.0686 122.276 70.8226 122.473 70.5274C123.776 68.5594 125.055 66.5914 126.383 64.648C127.194 63.4672 128.129 62.3602 128.768 61.081C128.94 60.7612 129.186 60.466 129.604 60.5152C130.145 60.5644 130.367 61.1056 130.121 61.696C129.58 62.9506 128.817 64.0822 127.957 65.14C126.998 66.3208 126.211 67.6246 125.424 68.9038C124.76 69.9616 124.047 70.9456 123.334 71.9542C123.112 72.274 122.842 72.5692 122.522 72.643H122.547Z" fill="#DA5673"/>
<path d="M51.8233 76.0624C51.3069 76.0378 51.0118 75.5704 51.2332 75.0046C51.4299 74.5372 51.725 74.0944 51.9955 73.6516C53.6922 70.8226 55.1677 67.846 57.0858 65.14C57.3071 64.8202 57.553 64.5004 57.8481 64.2052C58.1924 63.8608 58.5367 63.664 58.9793 64.0576C59.4465 64.4512 59.2498 64.8694 58.9793 65.2138C58.0203 66.3946 57.2579 67.6984 56.4956 69.0268C55.3644 70.9456 54.2578 72.889 53.1266 74.8078C52.9299 75.1522 52.7086 75.472 52.4627 75.8164C52.3152 76.0378 52.0938 76.087 51.8233 76.087V76.0624Z" fill="#DA5673"/>
<path d="M47.1511 75.8164C46.7085 75.8164 46.3642 75.4228 46.438 75.0046C46.4626 74.8078 46.5855 74.6356 46.6593 74.4634C48.3069 71.044 50.1266 67.723 52.1185 64.5004C52.3152 64.2052 52.5119 63.8854 52.7578 63.6394C52.9791 63.418 53.2988 63.2704 53.6185 63.541C53.8644 63.7624 54.0612 64.0084 53.9382 64.3774C53.8644 64.5988 53.7415 64.8202 53.6185 65.017C51.6758 68.1658 49.8069 71.3638 48.1839 74.734C48.0364 75.0538 47.8888 75.3982 47.5937 75.6196C47.4462 75.7426 47.2495 75.841 47.1019 75.8164H47.1511Z" fill="#DA5673"/>
<path d="M129.432 72.6922C128.94 72.6922 128.621 72.2986 128.768 71.782C128.891 71.3638 129.088 70.9702 129.334 70.6012C131.154 67.6984 132.998 64.8202 134.842 61.9174C134.916 61.819 134.941 61.696 135.039 61.6222C135.334 61.327 135.654 61.0564 136.096 61.3024C136.539 61.5484 136.514 61.9666 136.318 62.3602C136.072 62.9014 135.801 63.4426 135.457 63.9346C133.736 66.493 132.063 69.0514 130.514 71.7082C130.268 72.1264 130.096 72.7168 129.432 72.6922Z" fill="#DA5673"/>
<path d="M123.653 60.5644C123.58 61.0072 123.309 61.4254 123.088 61.819C122.498 62.8276 121.834 63.7624 121.12 64.648C119.866 66.2224 118.932 67.969 117.874 69.6664C117.678 69.9616 117.481 70.2814 117.26 70.552C117.014 70.8226 116.694 70.8472 116.374 70.6996C116.03 70.5274 115.956 70.2322 116.03 69.8878C116.153 69.3712 116.448 68.953 116.719 68.5102C118.047 66.4684 119.325 64.402 120.801 62.4832C121.342 61.7452 121.784 60.9334 122.276 60.1708C122.498 59.8264 122.817 59.7034 123.186 59.8018C123.555 59.9002 123.678 60.1954 123.653 60.589V60.5644Z" fill="#DA5673"/>
<path d="M48.7494 64.3281C48.7494 64.6233 48.6757 64.8693 48.5281 65.1153C46.8805 67.7721 45.5526 70.6011 44.1018 73.3563C43.9788 73.6023 43.8558 73.8729 43.7083 74.0943C43.4624 74.4387 43.1673 74.7339 42.7001 74.4387C42.3312 74.1927 42.1591 73.8483 42.3804 73.4055C42.4296 73.3071 42.4787 73.1841 42.5279 73.0857C43.8804 70.5027 45.0608 67.8213 46.5608 65.3121C46.8559 64.7955 47.151 64.2789 47.5936 63.8607C47.815 63.6639 48.0609 63.5163 48.356 63.6393C48.6511 63.7623 48.7494 64.0083 48.7494 64.3281Z" fill="#DA5773"/>
<path d="M141.925 63.2459C141.925 63.6641 141.752 63.9593 141.556 64.2545C140.597 65.7305 139.81 67.2803 139.097 68.9039C138.58 70.0601 137.916 71.1671 137.301 72.2987C137.203 72.4709 137.055 72.6185 136.908 72.7415C136.687 72.9629 136.392 72.9875 136.146 72.7907C135.9 72.5939 135.629 72.3971 135.777 72.0035C135.826 71.8559 135.9 71.7083 135.973 71.5607C137.4 68.9285 138.531 66.1487 140.08 63.5903C140.277 63.2705 140.424 62.9753 140.695 62.7293C140.916 62.5325 141.113 62.3603 141.433 62.5079C141.752 62.6555 141.924 62.9015 141.875 63.2459H141.925Z" fill="#DA5774"/>
<path d="M58.5366 73.627C58.0448 73.6516 57.6022 73.1104 57.7743 72.6676C57.9219 72.2986 58.094 71.9295 58.3153 71.5851C59.5695 69.5433 60.7744 67.477 61.7089 65.263C61.8564 64.9432 62.0532 64.6234 62.2745 64.3528C62.4958 64.0822 62.7909 63.9592 63.1106 64.1806C63.4303 64.3774 63.6761 64.648 63.5532 65.0662C63.504 65.2138 63.4303 65.3614 63.3565 65.509C62.1761 68.092 60.7498 70.5274 59.2744 72.9628C59.0776 73.2826 58.8809 73.5532 58.5121 73.627H58.5366Z" fill="#DA5774"/>
</svg>
