<svg width="271" height="401" viewBox="0 0 271 401" fill="none" xmlns="http://www.w3.org/2000/svg">
<path d="M100.11 400.887C155.399 400.887 200.219 397.242 200.219 392.745C200.219 388.248 155.399 384.602 100.11 384.602C44.8206 384.602 0 388.248 0 392.745C0 397.242 44.8206 400.887 100.11 400.887Z" fill="black"/>
<path d="M128.832 150.878C128.487 151.837 128.512 152.846 128.389 153.83C127.725 159.069 127.11 164.309 126.496 169.549C125.905 174.395 125.315 179.241 124.725 184.063C124.184 188.589 123.619 193.116 123.151 197.642C122.832 200.545 122.659 203.448 122.414 206.375C122.414 206.523 122.34 206.744 122.414 206.843C123.397 208.196 123.151 209.819 123.446 211.32C125.02 219.684 127.947 227.556 132.127 234.985C133.283 237.051 134.439 239.118 135.545 241.184C135.939 241.898 136.43 242.267 137.242 242.537C142.529 244.284 148.037 245.194 153.374 246.744C163.554 249.696 172.8 254.419 181.063 261.135C189.178 267.728 196.039 275.427 201.99 283.988C207.178 291.442 212.121 299.068 216.523 307.038C218.195 310.064 219.72 313.139 220.728 316.436C221.343 318.404 221.613 320.421 221.097 322.463C220.949 323.078 220.728 323.693 220.384 324.234C219.302 325.98 217.31 326.472 215.613 325.316C214.925 324.849 214.211 324.603 213.449 324.357C208.137 322.561 202.604 321.626 197.17 320.273C189.006 318.281 180.989 315.771 173.489 311.86C159.816 304.726 149.144 294.492 141.545 281.036C137.635 274.124 134.832 266.793 133.111 259.044C132.397 255.797 132.275 252.476 132.594 249.13C132.693 247.974 132.496 246.768 132.742 245.661C133.037 244.259 132.471 243.226 131.856 242.094C128.856 236.707 125.807 231.344 123.619 225.563C122.93 223.767 122.34 221.947 121.774 220.004C121.43 220.545 121.479 221.086 121.43 221.603C121.233 224.801 121.061 227.999 120.864 231.172C120.569 235.403 120.25 239.634 119.954 243.866C119.61 248.859 119.315 253.853 118.995 258.822C118.922 260.028 118.872 261.209 118.774 262.414C118.504 265.735 119.168 269.031 118.922 272.352C118.823 273.705 118.799 275.058 118.774 276.436C118.676 280.643 118.995 284.825 119.192 289.031C119.315 291.59 119.34 294.148 119.487 296.706C119.807 302.168 119.905 307.653 120.864 313.065C121.209 315.033 121.676 316.977 122.192 318.896C122.733 320.864 123.914 322.413 125.315 323.791C127.848 326.3 130.529 328.662 133.553 330.556C136.701 332.524 139.209 335.107 141.275 338.157C143.808 341.946 146.39 345.71 149.242 349.277C153.792 354.935 159.152 359.584 165.546 363.053C169.013 364.922 172.53 366.595 176.415 367.456C178.85 367.997 181.309 368.268 183.768 368.538C186.67 368.858 189.571 369.153 192.399 369.965C193.555 370.31 194.662 370.777 195.596 371.564C198.301 373.827 199.039 377.542 197.342 380.691C196.408 382.437 195.129 383.938 193.604 385.193C190.309 387.899 186.596 389.867 182.342 390.482C179.489 390.9 176.587 390.924 173.735 390.309C170.784 389.67 168.423 387.899 166.358 385.783C163.333 382.683 160.505 379.436 157.849 375.992C156.374 374.073 154.701 372.401 152.734 370.949C149.488 368.538 146.267 366.103 143.34 363.299C140.832 360.912 138.496 358.403 136.381 355.673C133.381 351.81 129.889 348.366 126.742 344.652C124.651 342.167 122.241 340.101 119.487 338.428C117.422 337.173 115.258 336.189 112.848 335.747C110.364 335.304 107.954 334.59 105.446 334.271C103.38 334.025 101.388 334.148 99.3965 334.738C97.8964 335.181 96.4455 335.796 94.8717 335.919C93.1258 336.066 91.4536 335.673 89.8306 335.058C89.6585 334.984 89.4617 334.861 89.3388 334.713C88.6502 333.729 87.5928 333.459 86.56 333.213C83.2156 332.376 79.9205 332.598 76.6253 333.557C68.6824 335.87 63.1003 341.085 58.8952 347.948C56.4116 352.007 54.8131 356.46 53.3377 360.937C52.0098 364.922 50.9278 368.981 49.4769 372.917C48.3949 375.894 47.1162 378.772 45.2719 381.38C42.7144 384.971 39.4438 387.751 35.5093 389.719C31.8452 391.564 28.0582 393.065 23.9516 393.581C20.8531 393.975 17.73 394.295 14.6562 393.434C10.6479 392.327 7.30351 390.309 5.38541 386.423C4.74605 385.143 4.40178 383.815 4.47555 382.364C4.5985 380.002 5.77887 378.378 7.84451 377.37C8.97569 376.829 10.2052 376.607 11.4594 376.583C13.8693 376.533 16.2546 376.484 18.6645 376.41C22.0826 376.312 25.4024 375.623 28.5992 374.393C32.2387 372.991 34.4519 370.334 35.5093 366.644C36.37 363.643 36.8618 360.568 37.452 357.493C38.2143 353.655 38.9766 349.793 40.4521 346.152C42.2718 341.601 44.9522 337.592 48.1736 333.926C56.0673 324.947 65.6823 318.551 77.1417 315.009C81.0516 313.803 85.06 313.09 89.0929 312.475C91.3798 312.106 93.6176 311.54 95.757 310.605C98.0194 309.597 99.126 307.85 99.3719 305.513C99.4456 304.751 99.6424 304.086 100.331 303.693C100.872 303.398 100.774 302.906 100.774 302.414C100.823 298.256 100.847 294.099 100.897 289.917C100.97 283.595 100.995 277.272 101.167 270.95C101.265 267.113 101.29 263.275 101.388 259.437C101.536 253.361 101.683 247.285 101.88 241.209C102.003 237.199 102.151 233.214 102.347 229.204C102.642 223.694 102.938 218.183 103.306 212.673C103.651 207.531 104.044 202.39 104.511 197.249C105.028 191.32 105.593 185.391 106.184 179.463C106.675 174.617 107.241 169.77 107.757 164.924C107.807 164.481 107.807 164.014 107.856 163.522C107.487 163.62 107.487 163.842 107.413 164.014C104.954 169.672 102.052 175.109 98.9046 180.422C98.4866 181.136 98.4866 181.677 98.8309 182.39C100.405 185.81 101.192 189.45 101.265 193.19C101.315 195.846 100.749 198.429 100.159 201.012C98.3882 208.737 95.6586 216.092 91.4782 222.882C88.8961 227.088 86.1911 231.197 83.314 235.182C78.1991 242.217 72.6415 248.909 66.3463 254.911C58.5018 262.389 49.7474 268.589 39.6405 272.746C35.0666 274.64 30.3206 275.772 25.3532 276.092C20.8039 276.362 16.4267 275.673 12.1971 274.074C9.81178 273.164 7.69696 271.811 6.09855 269.769C5.58214 269.105 5.13951 268.392 4.8936 267.58C5.11491 267.26 5.4346 267.137 5.80346 267.039C12.4184 264.948 18.8366 262.439 24.9844 259.216C25.3778 259.019 25.7467 258.798 26.2139 258.773C26.4844 258.773 26.7057 258.872 26.7795 259.191C26.1401 260.84 24.763 261.947 23.6565 263.226C22.2056 264.948 20.4351 266.325 18.5416 267.555C18.2465 267.752 17.7546 267.949 17.976 268.343C18.2465 268.785 18.7137 268.466 19.0334 268.269C21.3449 266.94 23.2384 265.071 24.9844 263.103C26.8533 261.012 28.6484 258.872 30.296 256.608C30.7878 255.944 31.4518 255.526 32.1403 255.083C37.9438 251.344 43.3046 247.064 48.4195 242.414C51.4934 239.61 54.4197 236.633 57.3214 233.657C59.2149 231.713 61.0592 229.696 62.879 227.679C63.2478 227.261 63.6659 226.547 64.3052 226.818C64.8708 227.064 64.6495 227.826 64.6495 228.368C64.7479 235.28 63.6167 241.996 61.1084 248.466C60.9117 248.958 60.4199 249.72 61.0346 249.966C61.674 250.212 61.7724 249.278 61.9445 248.81C64.1823 242.832 65.461 236.682 65.461 230.286C65.461 228.958 65.461 227.654 65.5348 226.326C65.6331 224.948 66.2479 223.915 67.1332 222.931C70.6743 219.069 74.0678 215.084 77.4122 211.025C80.7074 207.064 83.7566 202.907 86.7813 198.749C87.101 198.306 87.3715 197.544 87.9863 197.765C88.6502 197.987 88.4289 198.798 88.3797 199.364C88.0355 205.022 87.642 210.705 86.7321 216.314C86.6092 217.027 86.4125 217.716 86.1911 218.405C86.0928 218.7 85.9698 219.118 86.3633 219.241C86.7567 219.364 86.9043 218.97 87.0272 218.7C87.6174 217.347 87.6912 215.895 87.8879 214.469C88.601 209.278 89.0683 204.063 89.2158 198.823C89.2158 198.626 89.265 198.405 89.2158 198.233C88.5519 196.019 89.4371 194.223 90.5191 192.378C91.6503 190.434 92.4864 188.343 93.593 186.4C93.7651 186.105 94.0602 185.687 93.6668 185.441C93.175 185.121 92.9782 185.637 92.8061 185.982C91.6749 188.048 90.6175 190.164 89.5601 192.279C86.9289 197.519 83.2156 201.972 79.8221 206.67C78.4696 208.54 76.8958 209.106 74.7564 209.376C66.8135 210.41 58.8706 211.394 51.0753 213.214C50.5343 213.337 49.5261 213.312 49.6982 214.001C49.8704 214.69 50.7556 214.173 51.2721 214.05C59.0182 212.304 66.8873 211.369 74.7072 210.213C74.8547 210.213 75.0269 210.164 75.1744 210.164C75.5679 210.164 76.0597 210.09 76.281 210.483C76.5269 210.902 76.1089 211.221 75.863 211.517C73.7481 214.173 71.5104 216.732 69.248 219.266C63.4445 225.785 57.6165 232.279 51.4196 238.404C50.5343 239.29 49.6245 239.782 48.3211 239.93C44.1161 240.422 39.8619 240.446 35.6568 240.84C33.4682 241.037 31.255 240.889 29.091 241.283C28.8943 241.307 28.6976 241.307 28.5009 241.381C28.3533 241.43 28.2058 241.529 28.2058 241.701C28.2058 241.898 28.3779 241.971 28.5255 241.996C29.0911 242.119 29.632 242.094 30.1976 242.021C32.6321 241.75 35.0666 241.775 37.5011 241.578C40.4766 241.356 43.4767 241.16 46.4768 240.987C46.9441 240.963 47.5588 240.717 47.7801 241.233C48.0015 241.725 47.4605 242.094 47.1162 242.414C45.321 244.013 43.5259 245.588 41.6324 247.088C35.4847 252.008 29.0173 256.412 21.8859 259.757C16.9186 262.094 11.8282 264.111 6.61496 265.809C5.9756 266.006 5.33623 266.35 4.64769 266.129C4.50014 264.48 5.06573 263.054 5.9756 261.75C7.18055 260.003 8.63141 258.429 10.0823 256.904C15.2218 251.442 19.8203 245.563 23.7302 239.142C26.5336 234.518 29.1402 229.794 31.7469 225.071C35.165 218.921 38.4602 212.697 42.2226 206.744C45.6161 201.406 49.2556 196.24 53.9525 191.935C59.0182 187.286 64.7233 183.817 71.4612 182.193C75.199 181.308 79.0106 180.914 82.8714 181.013C83.8304 181.037 84.7895 181.013 85.7485 181.037C86.142 180.742 86.5846 180.865 87.0026 180.939C88.2322 181.111 89.4371 181.382 90.6421 181.628C91.7979 181.849 92.8553 181.701 93.7897 180.963C94.2078 180.57 94.1586 179.93 94.5029 179.512C96.0029 177.913 96.9128 175.945 97.9456 174.051C100.946 168.565 103.823 163.03 105.741 157.052C106.454 154.838 107.069 152.6 107.29 150.287C107.413 149.131 107.61 147.975 108.889 147.409C109.356 147.212 109.356 146.72 109.405 146.277C109.921 141.357 110.487 136.413 111.003 131.493C112.725 115.478 115.159 99.6113 118.553 83.8672C118.676 83.326 118.799 82.7849 119.217 82.3421C120.422 77.4959 121.577 72.625 123.176 67.9018C125.709 60.3988 128.61 53.0188 132.545 46.1062C136.996 38.2834 142.75 31.5922 150.373 26.6476C154.923 23.671 159.89 21.7768 165.251 20.8912C168.497 20.35 171.743 19.8334 175.014 20.0056C184.063 20.4484 192.129 23.302 198.203 30.3622C201.498 34.1998 204.154 38.4802 206.195 43.1542C208.605 48.6646 210.547 54.3226 211.654 60.2512C212.17 63.0556 212.515 65.8601 212.736 68.6891C213.302 75.4295 213.277 82.1944 213.277 88.9594C213.277 90.829 213.375 92.7232 213.424 94.5928C213.424 94.9126 213.424 95.1832 213.793 95.38C216.99 97.2004 220.187 99.0208 223.507 100.62C229.802 103.621 236.319 106.007 243.179 107.409C246.401 108.049 249.549 108.984 252.647 110.042C254.319 110.607 255.893 111.37 257.368 112.354C260.172 114.174 261.155 116.733 260.688 120.005C260.344 122.514 259.016 124.187 256.754 125.171C254.959 125.958 253.09 126.253 251.147 126.376C250.36 126.425 249.549 126.425 248.762 126.45C247.753 127.04 246.696 126.524 245.712 126.425C241.778 125.958 237.843 125.367 234.105 123.965C229.335 122.194 224.736 120.029 220.408 117.348C219.228 116.61 219.277 116.585 218.982 118.012C218.293 121.358 217.039 124.433 214.802 127.089C212.367 129.992 208.974 129.82 206.834 126.72C205.777 125.195 205.014 123.522 204.547 121.727C204.547 121.604 204.523 121.505 204.498 121.382C204.498 121.333 204.449 121.284 204.424 121.235C204.424 121.259 204.35 121.161 204.375 121.259C204.375 121.308 204.424 121.382 204.449 121.431C203.932 123.129 202.973 124.556 201.793 125.81C199.186 128.639 195.473 127.827 194.244 124.162C193.826 122.907 193.604 121.604 193.629 120.275C193.629 119.414 193.727 118.529 193.334 117.545C190.924 119.734 188.317 121.554 185.735 123.449C183.571 125.048 181.407 126.597 179.071 127.926C173.292 131.222 167.218 131.788 160.898 129.82C160.603 129.722 160.284 129.623 159.988 129.525C158.12 128.811 156.3 127.975 154.701 126.745C153.792 126.056 153.103 125.171 152.636 124.137C151.898 122.538 152.414 121.112 153.939 120.275C154.259 120.103 154.603 119.98 154.947 119.857C161.12 117.692 166.923 114.716 172.505 111.321C177.227 108.467 181.948 105.589 186.866 103.055C190.039 101.432 193.309 100.029 196.727 98.9963C199.531 98.1599 199.531 97.963 199.629 95.011C199.826 88.738 199.211 82.5389 198.399 76.3643C198.178 75.0359 198.031 73.7075 197.809 72.3791C197.072 65.1959 195.498 58.1848 193.014 51.3952C191.981 48.5908 190.703 45.934 188.784 43.6216C184.924 38.9968 179.883 37.0534 173.981 37.6438C168.989 38.1358 164.833 40.4974 161.169 43.8676C157.185 47.5576 154.185 51.9364 151.652 56.7088C148.259 63.031 145.504 69.6239 143.267 76.4381C140.832 83.4491 138.988 90.6076 137.389 97.8646C136.43 102.416 135.496 106.991 134.66 111.591C134.561 111.911 134.488 112.256 134.488 112.575C132.84 122.219 131.365 131.886 130.061 141.603C129.717 144.211 129.422 146.843 129.053 149.451C128.979 149.918 129.028 150.435 128.635 150.779L128.832 150.878Z" fill="#3BCC84"/>
<path d="M160.308 129.377C162.275 129.894 164.243 130.361 166.259 130.607C169.431 130.976 172.456 130.435 175.432 129.426C177.694 128.664 179.735 127.508 181.678 126.155C185.194 123.719 188.686 121.235 191.981 118.529C192.596 118.037 193.162 117.471 193.826 116.88C194.022 117.717 194.072 118.455 194.072 119.193C194.072 120.743 194.17 122.292 194.613 123.818C194.834 124.556 195.154 125.244 195.621 125.835C196.826 127.385 198.916 127.729 200.564 126.671C201.621 125.982 202.383 125.023 203.072 123.965C203.637 123.08 204.129 122.169 204.523 121.21C204.572 121.112 204.621 121.112 204.695 121.185C204.793 121.259 204.842 121.333 204.892 121.431C205.359 122.883 205.875 124.31 206.662 125.613C206.957 126.13 207.301 126.647 207.67 127.089C209.638 129.402 212.49 129.476 214.507 127.188C216.572 124.826 217.851 122.022 218.613 118.996C218.835 118.086 218.982 117.151 219.179 116.192C219.72 116.29 220.015 116.634 220.384 116.856C224.982 119.709 229.827 122.071 234.917 123.891C238.015 124.998 241.261 125.515 244.507 125.958C245.983 126.155 247.434 126.302 248.909 126.499C251.639 132.969 253.336 139.734 254.467 146.671C255.106 150.558 255.573 154.494 256.065 158.405C256.409 161.136 256.557 163.891 256.877 166.622C257.369 170.828 257.934 175.01 258.647 179.192C259.385 183.448 260.074 187.704 261.082 191.886C262.041 195.896 263.27 199.807 264.844 203.62C266.074 206.597 267.623 209.376 269.443 212.033C269.615 212.304 269.787 212.574 269.959 212.845C271.754 215.674 270.943 218.134 268.287 219.954C267.106 220.766 265.828 221.258 264.475 221.652C261.254 222.562 257.959 223.226 254.664 223.792C251.614 224.333 248.54 224.432 245.467 224.235C242.171 224.013 238.852 223.792 235.753 222.414C232.409 220.914 229.286 219.118 226.728 216.412C226.63 216.289 226.507 216.166 226.261 216.191C226.089 216.191 226.04 216.437 225.941 216.609C223.63 220.988 220.138 224.063 215.638 226.055C213.621 226.965 211.556 227.654 209.367 227.974C206.76 228.343 204.178 228.269 201.621 227.851C198.301 227.31 195.252 226.031 192.498 224.063C190.039 222.316 188.071 220.028 186.252 217.642C185.145 216.166 184.235 214.567 183.35 212.796C182.981 213.214 182.686 213.558 182.415 213.903C179.415 217.667 175.751 220.545 171.227 222.267C169.382 222.98 167.44 223.251 165.521 223.546C162.03 224.063 158.513 224.284 154.997 224.087C151.578 223.89 148.308 223.005 145.16 221.676C143.562 221.012 142.037 220.25 140.685 219.143C139.799 218.429 139.086 217.568 138.644 216.51C138.078 215.256 138.25 213.854 139.258 212.993C142.48 210.188 144.472 206.547 146.193 202.734C147.595 199.635 148.8 196.461 149.857 193.239C150.988 189.869 151.652 186.375 152.144 182.833C152.636 179.34 152.882 175.847 152.808 172.329C152.808 171.812 152.808 171.296 152.611 170.779C152.464 170.238 152.464 169.672 152.464 169.131C152.464 165.539 152.464 161.948 152.464 158.356C152.464 156.167 152.759 153.977 152.783 151.788C153.251 149.795 153.374 147.753 153.742 145.761C154.701 140.496 156.497 135.503 159.128 130.829C159.423 130.287 159.644 129.623 160.333 129.402L160.308 129.377Z" fill="#FF8BA2"/>
<path d="M94.2078 181.308C93.1995 182.193 92.0438 182.415 90.765 182.095C89.142 181.701 87.4945 181.406 85.8469 181.16C85.5518 178.184 85.2567 175.182 84.9862 172.206C84.7895 170.213 84.6173 168.221 84.4452 166.228C84.0271 161.259 83.5599 156.265 83.0435 151.296C82.6501 147.483 82.3304 143.645 81.9861 139.832C81.4943 134.42 81.0516 129.008 80.5106 123.596C80.3385 121.899 80.1172 120.177 79.65 118.529C78.8876 115.823 78.1991 115.404 75.4203 115.724C71.2645 116.216 67.1086 116.782 62.9036 117.102C58.6493 117.422 54.3705 117.643 50.0917 117.84C44.9768 118.061 39.8619 118.012 34.7224 117.914C30.1731 117.815 25.5991 117.741 21.0744 117.249C19.9186 117.126 18.7875 116.954 17.6317 116.757C17.1645 116.684 16.6972 116.536 16.2546 116.339C15.0742 115.773 14.7054 114.568 15.3201 113.412C15.7136 112.698 16.3284 112.182 16.9677 111.69C18.394 110.632 20.0416 109.968 21.6646 109.328C25.2795 107.951 29.0419 106.917 32.6813 105.614C37.8454 103.793 42.9603 101.825 48.1982 100.226C54.6656 98.2582 61.2068 96.5608 67.748 94.9372C68.289 94.8142 68.83 94.6666 69.4447 94.4944C69.1742 93.781 68.6824 93.3874 68.2398 92.9446C63.1741 87.9754 58.7723 82.4158 54.4197 76.8316C50.436 71.7394 47.19 66.1798 43.9931 60.571C41.4603 56.0938 38.9028 51.592 36.9601 46.795C36.0995 44.6794 35.288 42.5392 34.7961 40.3252C34.747 40.1038 34.6732 39.8578 34.6486 39.6118C34.3781 37.4224 35.8044 35.9956 38.0176 36.2416C39.493 36.4138 40.7963 37.0042 42.0505 37.693C44.4112 38.9476 46.4276 40.6204 48.4441 42.367C51.5917 45.0976 54.5918 47.9758 57.4936 50.977C64.3298 58.0126 71.1169 65.0728 78.1007 71.9854C79.1335 72.994 80.191 73.9534 81.273 74.9866C81.5926 74.8636 81.4451 74.4946 81.5189 74.1994C83.7812 63.8182 85.3796 53.2894 87.2731 42.8344C88.6256 35.356 90.1257 27.9268 91.6749 20.473C92.7569 15.307 93.8389 10.141 94.9209 4.97505C95.0439 4.36005 95.2406 3.74504 95.4373 3.13004C95.5849 2.68724 95.757 2.21985 96.0029 1.80165C96.8882 0.276446 98.462 0.0796468 99.6915 1.38345C100.306 2.04765 100.675 2.83484 100.97 3.67124C101.634 5.56544 102.028 7.53345 102.397 9.50145C103.356 14.5444 103.995 19.612 104.585 24.7042C105.938 36.1924 107.684 47.6068 109.995 58.9228C111.569 66.6472 112.872 74.3962 114.2 82.1698C114.544 84.2362 114.053 84.1132 116.266 83.449C117.299 83.1292 118.307 82.7848 119.34 82.4404C118.528 86.3764 117.668 90.337 116.93 94.2976C115.897 99.8326 114.987 105.368 114.126 110.952C113.364 115.995 112.725 121.062 112.061 126.13C111.815 128.024 111.692 129.943 111.372 131.837C110.462 131.591 109.971 130.804 109.405 130.14C107.438 127.778 105.274 125.589 103.061 123.449C102.692 123.08 102.249 122.784 101.856 122.465C101.388 122.12 101.142 122.219 101.069 122.784C100.995 123.424 100.823 124.039 100.823 124.679C100.823 128.393 100.823 132.108 100.577 135.822C100.233 140.89 99.8145 145.933 99.2489 151.001C98.2407 160.152 96.716 169.229 95.0193 178.282C94.9209 178.799 94.8471 179.315 94.5766 179.758C94.257 180.225 94.4783 180.84 94.1832 181.308H94.2078Z" fill="#FFDD00"/>
<path d="M153.103 151.468C153.103 152.993 153.054 154.494 152.906 155.995C152.783 157.348 152.808 158.701 152.783 160.078C152.783 163.202 152.783 166.327 152.783 169.426C152.783 169.869 152.882 170.312 152.611 170.705C149.513 168.86 146.685 166.671 143.881 164.408C138.963 160.447 134.365 156.118 129.815 151.739C129.496 151.444 129.151 151.148 128.832 150.878C128.832 149.082 129.201 147.311 129.422 145.515C129.914 141.628 130.43 137.766 130.996 133.879C131.734 128.91 132.496 123.941 133.258 118.972C133.602 116.807 133.996 114.642 134.365 112.477C134.488 112.231 134.66 112.084 134.955 112.231C135.471 112.551 135.668 113.068 135.939 113.56C139.603 120.62 142.775 127.901 146.045 135.158C148.283 140.103 150.546 145.048 152.71 150.017C152.833 150.312 152.98 150.583 153.029 150.902C153.029 151.025 153.029 151.148 153.029 151.271C153.029 151.321 153.029 151.394 153.029 151.444L153.103 151.468Z" fill="#FFDD00"/>
<path d="M4.72144 266.252C6.61494 265.612 8.50844 264.997 10.3773 264.308C16.8939 261.971 23.2384 259.216 29.1894 255.649C33.8617 252.845 38.2634 249.671 42.4439 246.178C44.0423 244.85 45.6161 243.472 47.1653 242.119C47.3867 241.922 47.7063 241.775 47.7555 241.258C46.1571 241.652 44.5587 241.455 42.9849 241.627C42.5423 241.676 42.1242 241.725 41.6816 241.75C39.4438 241.898 37.2306 241.922 34.9928 242.217C34.8453 242.217 34.6732 242.217 34.5256 242.217C33.0502 242.316 31.5747 242.168 30.0993 242.439C29.632 242.537 29.1402 242.488 28.673 242.488C28.2058 242.488 27.7631 242.39 27.7631 241.799C27.7631 241.283 28.132 241.11 28.55 241.061C29.3369 240.963 30.1238 240.815 30.9353 240.815C34.3289 240.815 37.6978 240.397 41.0914 240.249C43.8702 240.126 46.6489 239.807 49.4277 239.61C49.8212 239.585 50.1163 239.413 50.3622 239.167C52.7475 236.756 55.2312 234.419 57.4935 231.885C58.6493 230.557 59.9034 229.327 61.1084 228.023C63.7642 225.145 66.42 222.242 69.0021 219.315C71.4612 216.51 73.8465 213.657 76.2564 210.828C76.3056 210.779 76.281 210.68 76.3056 210.557C75.3957 210.287 74.4858 210.631 73.6252 210.754C68.1906 211.541 62.7314 212.328 57.3214 213.214C55.1082 213.558 52.9442 214.124 50.7802 214.592C50.5835 214.641 50.3868 214.715 50.19 214.739C49.7228 214.813 49.3785 214.592 49.2802 214.173C49.1818 213.78 49.4277 213.485 49.7966 213.312C49.9687 213.239 50.1654 213.165 50.3622 213.116C53.5344 212.353 56.7558 211.713 59.9772 211.197C62.3871 210.803 64.7724 210.36 67.1823 210.09C69.8873 209.795 72.5432 209.303 75.2482 209.007C75.9613 208.934 76.6744 208.761 77.3876 208.811C77.781 208.835 78.0761 208.638 78.2974 208.343C81.1746 204.555 84.2239 200.889 86.8059 196.88C88.8469 193.706 90.4945 190.336 92.1667 186.966C92.4372 186.425 92.6831 185.883 93.0028 185.367C93.2241 184.973 93.5438 184.629 94.0848 184.899C94.552 185.121 94.6504 185.564 94.3553 186.129C92.9536 188.835 91.5765 191.541 90.1257 194.198C89.6339 195.108 89.4125 195.969 89.6339 197.027C89.9535 198.503 89.806 200.053 89.7076 201.578C89.6584 202.169 89.5847 202.759 89.5601 203.374C89.4617 205.932 89.1912 208.466 88.8715 211C88.6256 212.968 88.3551 214.961 88.1092 216.929C88.0108 217.74 87.7404 218.478 87.4207 219.216C87.1502 219.807 86.7075 220.028 86.2895 219.807C85.7977 219.536 85.8223 219.069 85.9698 218.651C87.0026 216.117 86.978 213.411 87.3469 210.779C87.7895 207.458 88.0846 204.112 88.1338 200.766C88.1338 199.832 88.3551 198.897 88.2568 197.962C87.8141 197.962 87.7404 198.282 87.5928 198.503C85.2321 201.972 82.5517 205.194 80.0926 208.614C79.3303 209.672 78.4696 210.606 77.6335 211.59C75.6416 214.001 73.6006 216.363 71.5841 218.7C69.9365 220.594 68.2643 222.488 66.6168 224.382C66.42 224.604 66.2479 224.801 66.2233 225.096C66.1495 225.932 66.0266 226.769 66.0266 227.605C66.002 230.213 66.0512 232.796 65.7561 235.379C65.1659 240.397 63.9855 245.268 62.092 249.966C61.8461 250.557 61.4035 250.803 60.9854 250.557C60.5182 250.311 60.4936 249.893 60.6658 249.425C60.9608 248.638 61.2559 247.851 61.5264 247.064C62.8298 243.447 63.6167 239.708 64.1331 235.895C64.5019 233.115 64.5757 230.336 64.5757 227.531C64.5757 227.359 64.6495 227.138 64.4528 227.015C63.7642 227.654 63.0019 228.245 62.3871 228.958C58.4772 233.361 54.3705 237.568 50.0917 241.602C45.1735 246.227 39.911 250.483 34.3289 254.296C34.3043 254.296 34.2551 254.345 34.2305 254.37C31.6977 255.551 30.1484 257.715 28.4763 259.831C26.0418 262.857 23.5581 265.858 20.3367 268.072C19.8694 268.392 19.4022 268.687 18.9104 268.933C18.3202 269.228 17.8776 269.13 17.6808 268.662C17.4595 268.146 17.7792 267.826 18.1973 267.605C20.3613 266.35 22.2056 264.702 23.8778 262.857C24.9352 261.701 25.8942 260.495 26.9024 259.29C26.9516 259.167 27.0746 258.97 26.9024 258.921C26.7549 258.872 26.5336 258.896 26.386 259.044C20.2137 262.316 13.7709 264.899 7.15594 267.088C6.46739 267.309 5.77884 267.482 5.0903 267.678C4.94275 267.211 4.69685 266.768 4.8198 266.252H4.72144Z" fill="#056A37"/>
<path d="M143.094 76.5857C161.415 74.2733 179.882 73.56 198.301 72.3792C198.621 73.7322 198.744 75.1098 198.867 76.4874C190.039 80.2758 180.891 83.154 171.841 86.3274C165.005 88.7382 158.292 91.3949 151.406 93.6335C146.931 95.0849 142.406 96.4133 137.881 97.7909C137.684 97.8401 137.488 97.8647 137.291 97.9139C138.053 93.8795 139.111 89.919 140.193 85.9584C141.053 82.8096 141.963 79.6608 143.094 76.6104V76.5857Z" fill="#FFDD00"/>
<path d="M164.144 271.959C165.521 273.287 166.849 274.566 168.177 275.821C168.497 276.116 168.841 276.387 169.161 276.707C172.825 280.397 176.686 283.865 180.497 287.432C184.604 291.294 188.834 295.009 193.014 298.797C193.506 299.265 194.047 299.683 194.539 300.15C195.006 300.569 195.375 301.11 196.162 300.962C196.408 300.913 196.752 301.184 197.022 301.331C200.637 303.225 204.424 304.726 208.211 306.276C209.244 306.694 210.351 306.94 211.457 307.112C211.654 307.137 211.875 307.112 212.047 307.211C212.367 307.334 212.638 307.555 212.588 307.924C212.539 308.318 212.293 308.588 211.875 308.588C211.285 308.588 210.695 308.588 210.08 308.465C207.793 307.949 205.703 306.965 203.564 306.054C202.211 305.489 200.859 304.898 199.211 304.209C199.531 304.578 199.654 304.8 199.85 304.947C202.285 306.915 204.473 309.129 206.76 311.245C208.826 313.139 210.99 314.91 213.105 316.731C214.211 317.666 215.269 318.625 216.351 319.584C216.449 319.658 216.523 319.757 216.597 319.83C217.064 320.347 217.187 320.962 216.818 321.183C216.326 321.503 215.933 321.282 215.539 320.937C214.236 319.757 212.957 318.551 211.58 317.469C207.547 314.246 203.908 310.581 200.047 307.161C196.039 303.619 192.055 300.003 188.096 296.411C185.661 294.222 183.153 292.106 180.792 289.818C180.448 289.499 180.079 289.228 179.514 289.08C179.858 289.769 180.178 290.483 180.596 291.171C183.94 296.854 187.088 302.66 190.088 308.539C191.121 310.581 192.498 312.401 193.924 314.172C194.49 314.886 194.563 315.304 194.194 315.624C193.801 315.993 193.285 315.796 192.694 315.107C190.506 312.573 188.883 309.671 187.383 306.719C184.948 301.946 182.342 297.272 179.637 292.623C178.358 290.409 177.227 288.096 176.071 285.833C175.85 285.39 175.579 285.021 175.235 284.677C171.374 281.012 167.538 277.322 163.677 273.681C162.275 272.352 160.849 271.098 159.423 269.819C159.3 269.72 159.202 269.573 158.931 269.597C158.833 270.261 159.103 270.876 159.226 271.516C160.726 279.093 163.431 286.251 166.554 293.287C168.202 296.977 170.169 300.495 172.579 303.767C172.677 303.89 172.751 304.037 172.825 304.185C173.046 304.554 172.948 304.898 172.628 305.144C172.333 305.366 172.013 305.316 171.743 305.095C171.276 304.701 170.907 304.234 170.563 303.742C168.399 300.47 166.505 297.051 164.907 293.459C162.915 289.031 161.243 284.505 159.743 279.905C158.734 276.83 158.144 273.656 157.431 270.483C157.308 269.966 157.161 269.474 157.136 268.958C157.038 267.605 156.275 266.694 155.316 265.858C152.095 263.029 149.291 259.782 146.316 256.707C145.8 256.166 145.234 255.797 144.595 255.477C144.004 255.182 143.291 254.96 143.636 253.976C143.783 253.583 143.34 253.361 143.095 253.115C141.742 251.59 140.365 250.089 138.988 248.564C138.865 248.417 138.717 248.269 138.619 248.097C138.398 247.777 138.447 247.506 138.693 247.236C138.939 246.965 139.209 246.891 139.553 247.088C139.922 247.285 140.168 247.58 140.439 247.875C142.234 249.868 144.029 251.861 145.775 253.878C146.341 254.517 147.029 254.837 147.791 255.083C151.578 256.338 155.439 257.346 159.3 258.404C161.193 258.921 163.087 259.413 164.956 259.929C165.3 260.028 165.644 260.175 165.964 260.298C166.431 260.495 166.653 260.864 166.431 261.356C166.235 261.824 165.817 261.824 165.398 261.676C164.194 261.233 162.939 261.012 161.71 260.643C157.751 259.511 153.792 258.404 149.832 257.273C149.611 257.199 149.365 257.125 149.119 257.273C149.168 257.371 149.168 257.519 149.242 257.592C151.972 260.323 154.529 263.25 157.529 265.76C158.12 266.252 158.562 266.965 159.152 267.506C159.497 267.801 159.792 268.097 160.308 268.023C160.652 267.974 160.923 268.146 161.193 268.318C166.21 271.245 171.546 273.509 176.932 275.698C180.301 277.076 183.67 278.429 187.112 279.585C187.973 279.88 188.784 280.372 189.596 280.79C189.989 280.987 190.334 281.282 190.58 281.651C190.899 282.119 190.653 282.635 190.088 282.684C189.694 282.734 189.399 282.561 189.104 282.34C187.899 281.454 186.497 280.962 185.096 280.495C180.522 278.945 176.046 277.051 171.62 275.157C169.308 274.148 167.021 273.09 164.735 272.057C164.587 271.983 164.464 271.885 164.12 272.057L164.144 271.959Z" fill="#056A37"/>
<path d="M183.374 181.332C183.325 182.095 183.374 183.079 183.202 184.088C182.735 186.917 180.719 188.073 177.94 187.605C175.727 187.236 174.227 185.859 173.317 183.817C172.087 181.037 171.989 178.159 172.677 175.256C173.243 172.845 173.931 170.459 174.571 168.073C174.694 167.606 174.817 167.138 174.891 166.671C175.038 165.761 175.481 165.072 176.218 164.481C177.423 163.497 179.071 163.793 179.784 165.195C179.883 165.416 179.981 165.638 180.03 165.859C180.743 168.737 181.727 171.517 182.538 174.346C183.178 176.535 183.424 178.799 183.399 181.332H183.374Z" fill="#80BDFF"/>
<path d="M221.343 141.874C221.392 148.295 218.49 153.043 213.08 156.339C210.203 158.11 207.08 158.356 203.809 157.815C197.662 156.806 193.58 153.215 191.096 147.655C190.776 146.917 190.555 146.155 190.579 145.343C190.579 144.974 190.653 144.629 190.825 144.31C191.145 143.67 191.76 143.375 192.424 143.522C193.039 143.645 193.53 144.113 193.481 144.802C193.407 145.958 193.924 146.893 194.44 147.852C197.514 153.559 202.727 155.699 208.555 155.035C210.351 154.838 211.875 153.854 213.252 152.772C214.802 151.542 216.056 150.041 217.015 148.295C218.441 145.638 218.589 142.809 218.293 139.882C218.244 139.488 218.17 139.094 218.244 138.701C218.416 138.012 218.933 137.569 219.597 137.545C220.261 137.52 220.826 137.914 221.023 138.602C221.318 139.685 221.294 140.816 221.318 141.948L221.343 141.874Z" fill="#056A37"/>
</svg>
